# xmcd
#
# Track frame offsets:
#	182
#	14022
#	27432
#	42020
#	53625
#	66475
#	80670
#	96795
#	111412
#	125420
#	136857
#	148312
#	163390
#	176702
#	190555
#	205420
#	218890
#	233137
#	249495
#	263895
#	278952
#	294220
#
# Disc length: 4125 seconds
#
# Revision: 1
# Processed by: cddbd v1.5.1PL2 Copyright (c) Steve Scherf et al.
# Submitted via: audiograbber 1.83.01
#
DISCID=54101b16
DTITLE=Various Artist - The Blues Story Vol.1
DYEAR=1900
DGENRE=Blues
TTITLE0=Blind Lemon Jefferson - Black Snake Moan
TTITLE1=Blind Lemon Jefferson - Rabbit Foot Blues
TTITLE2=Sleepy John Estes - Lawyer Clark Blues
TTITLE3=Sleepy John Estes - Little Laura Blues
TTITLE4=Memphis Jug Band - Cocaine Habit Blues
TTITLE5=Leroy Carr - Midnight Hour Blues
TTITLE6=Leroy Carr - Blues Before Sunrise
TTITLE7=Leadbelly - Blue Snake Moan
TTITLE8=Leadbelly - Match Box Blues
TTITLE9=Robert Johnson - Crossroads Blues
TTITLE10=Robert Johnson - Walkin' Blues
TTITLE11=Ma Rainey - C.C. Rider
TTITLE12=Ma Rainey - Don't Fish In My Sea
TTITLE13=Bessie Smith - Yellow Dog Blues
TTITLE14=Bessie Smith - Blackwater Blues
TTITLE15=Bessie Smith - Dyin' By The Hour
TTITLE16=Chippie Hall - Trouble In Mind
TTITLE17=Chippie Hall - Sports Model Mind
TTITLE18=Cleo Gibson - Nothing But Blues
TTITLE19=Elzadie Robinson - St. Louis Cyclone Blues
TTITLE20=Elzadie Robinson - Santa Claus Grave
TTITLE21=Ida Cox - 'Fore Day Creep
EXTD=Starburst CD-STB-8812	\n
EXTT0=
EXTT1=
EXTT2=
EXTT3=
EXTT4=
EXTT5=
EXTT6=
EXTT7=
EXTT8=
EXTT9=
EXTT10=
EXTT11=
EXTT12=
EXTT13=
EXTT14=
EXTT15=
EXTT16=
EXTT17=
EXTT18=
EXTT19=
EXTT20=
EXTT21=
PLAYORDER=
